<?xml version="1.0" encoding="UTF-8" standalone="no"?>
<!-- Created with Inkscape (http://www.inkscape.org/) -->

<svg
   width="210mm"
   height="210mm"
   viewBox="0 0 210 210"
   version="1.1"
   id="svg1"
   xmlns="http://www.w3.org/2000/svg"
   xmlns:svg="http://www.w3.org/2000/svg">
  <defs
     id="defs1" />
  <g
     id="layer1">
    <g
       id="g3">
      <path
         id="rect1"
         style="fill:none;fill-rule:evenodd;stroke:#ffffff;stroke-width:5.26851;stroke-linejoin:round"
         d="m 23.996752,50.304279 c -6.812766,0 -12.297297,5.706756 -12.297297,12.79556 v 93.529681 c 0,7.0888 5.484531,12.79554 12.297297,12.79554 H 171.55287 c 6.81277,0 12.2973,-5.70674 12.2973,-12.79554 v -50.02705 c -0.21326,0.0195 -0.42682,0.0353 -0.64057,0.0476 -11.03345,1e-5 -19.97782,-9.257032 -19.97779,-20.676157 -2e-5,-11.419117 8.94435,-20.676161 19.97779,-20.676148 0.21359,0.0026 0.42715,0.0077 0.64057,0.01651 v -2.214471 c 0,-7.088804 -5.48453,-12.79556 -12.2973,-12.79556 z M 183.85017,65.638974 A 19.222795,20.223902 0 0 0 164.62734,85.862846 19.222795,20.223902 0 0 0 183.85017,106.0867 19.222795,20.223902 0 0 0 203.07299,85.862846 19.222795,20.223902 0 0 0 183.85017,65.638974 Z" />
      <path
         id="path1"
         style="fill:none;fill-rule:evenodd;stroke:#ffffff;stroke-width:5.26851;stroke-linejoin:round;stroke-dasharray:none"
         d="m 52.535168,66.473815 c -6.812766,0 -12.297297,5.706756 -12.297297,12.795561 v 43.303604 c 0,7.08881 5.484531,12.79556 12.297297,12.79556 h 25.444238 l -1.858798,19.55733 18.368097,-18.22429 0.569631,-0.66632 34.122194,-0.66672 c 6.81156,-0.13309 12.2973,-5.70675 12.2973,-12.79556 V 79.269376 c 0,-7.088805 -5.48454,-12.795561 -12.2973,-12.795561 z" />
      <path
         style="fill:none;fill-rule:evenodd;stroke:#ffffff;stroke-width:5.26851;stroke-linecap:round;stroke-linejoin:round;stroke-dasharray:none"
         d="M 53.988926,77.749045 66.181433,125.09578 78.357917,77.81127"
         id="path2" />
      <path
         style="fill:none;fill-rule:evenodd;stroke:#ffffff;stroke-width:5.26851;stroke-linecap:round;stroke-linejoin:round;stroke-dasharray:none"
         d="M 94.615605,125.83629 V 77.277588 l 13.592565,-0.157144 c 0,0 12.94483,0.235837 13.44155,7.543102 0.33692,4.956559 -0.54211,10.315102 -2.75584,11.972193 -1.34285,1.005192 -2.03267,1.118442 -3.13428,2.013962 -9.66583,7.857399 -18.878567,4.714439 -18.878567,4.714439 l 25.674847,21.84355"
         id="path3" />
    </g>
  </g>
</svg>
